<?xml version="1.0" standalone="no"?>
<!DOCTYPE svg PUBLIC "-//W3C//DTD SVG 20010904//EN"
 "http://www.w3.org/TR/2001/REC-SVG-20010904/DTD/svg10.dtd">
<svg version="1.0" xmlns="http://www.w3.org/2000/svg"
 width="246.000000pt" height="269.000000pt" viewBox="0 0 246.000000 269.000000"
 preserveAspectRatio="xMidYMid meet">

<g transform="translate(0.000000,269.000000) scale(0.100000,-0.100000)"
fill="#216583" stroke="none">
<path d="M0 1345 l0 -1345 1230 0 1230 0 0 1345 0 1345 -1230 0 -1230 0 0
-1345z m1321 1167 c30 -15 99 -54 154 -86 152 -89 545 -316 698 -404 64 -36
105 -67 117 -88 19 -30 20 -53 20 -614 0 -558 -1 -584 -19 -614 -15 -24 -129
-94 -501 -310 -266 -153 -498 -283 -516 -289 -23 -7 -45 -7 -67 0 -18 5 -250
135 -516 289 -374 216 -487 286 -502 310 -18 30 -19 55 -19 614 0 559 1 584
19 614 14 22 74 62 218 145 109 63 234 135 278 161 433 254 518 300 555 300
15 0 51 -13 81 -28z"/>
<path d="M529 1429 c0 -2 -1 -41 -2 -87 l-2 -82 33 0 c32 0 33 2 27 28 -5 25
-2 29 27 37 27 8 34 16 36 41 2 17 -3 36 -11 42 -13 11 -106 29 -108 21z m76
-59 c0 -7 -6 -15 -12 -17 -8 -3 -13 4 -13 17 0 13 5 20 13 18 6 -3 12 -11 12
-18z"/>
<path d="M933 1418 c-26 -36 -38 -71 -25 -75 14 -5 16 -39 2 -48 -24 -15 -9
-35 25 -35 28 0 35 4 35 20 0 11 -4 20 -10 20 -5 0 -10 9 -10 20 0 11 5 20 10
20 15 0 12 40 -2 40 -7 0 -3 8 10 18 13 10 20 21 16 25 -12 11 -41 8 -51 -5z"/>
<path d="M1363 1413 c-4 -9 -1 -19 5 -21 15 -5 16 -88 2 -97 -24 -15 -9 -35
26 -35 35 0 36 1 31 30 -6 27 -4 30 18 30 34 0 61 41 45 70 -21 39 -114 56
-127 23z m85 -40 c-5 -25 -28 -28 -28 -4 0 12 6 21 16 21 9 0 14 -7 12 -17z"/>
<path d="M1239 1389 c-9 -17 -17 -20 -46 -14 -46 8 -83 -15 -83 -54 0 -51 69
-83 100 -46 18 22 -3 44 -24 26 -19 -16 -36 -6 -36 19 0 16 7 18 45 17 41 -2
45 -4 45 -27 0 -15 5 -31 12 -38 17 -17 48 -15 48 3 0 8 -4 15 -10 15 -14 0
-13 47 2 52 8 3 8 12 -3 36 -16 37 -34 41 -50 11z"/>
<path d="M1760 1390 c-11 -21 -3 -97 13 -117 13 -18 47 -16 47 2 0 8 -4 15
-10 15 -5 0 -10 11 -10 25 0 14 5 25 10 25 6 0 10 9 10 20 0 11 -4 20 -10 20
-5 0 -10 7 -10 15 0 22 -27 18 -40 -5z"/>
<path d="M682 1364 c-59 -41 1 -125 72 -98 24 9 7 35 -19 28 -13 -3 -26 -1
-29 5 -5 7 7 11 33 11 34 0 39 3 34 18 -18 50 -52 64 -91 36z"/>
<path d="M785 1370 c-3 -5 0 -18 7 -30 10 -16 10 -24 0 -40 -17 -28 -7 -40 34
-40 33 0 48 20 24 35 -5 3 -10 15 -10 26 0 16 5 18 25 13 21 -5 25 -3 25 15 0
12 -3 21 -7 22 -5 0 -27 2 -50 5 -23 2 -45 0 -48 -6z"/>
<path d="M1006 1365 c-25 -25 -29 -54 -11 -81 13 -21 23 -25 53 -22 25 2 37 8
37 18 0 10 -8 14 -27 12 -14 -2 -29 2 -33 7 -4 7 8 11 34 11 47 0 54 17 21 50
-24 24 -53 26 -74 5z"/>
<path d="M1528 1369 c-28 -16 -21 -29 15 -30 27 -1 28 -2 7 -6 -34 -6 -52 -31
-39 -54 7 -15 21 -19 60 -19 l51 0 -7 43 c-6 40 -34 77 -59 77 -6 0 -19 -5
-28 -11z m39 -75 c-3 -3 -12 -4 -19 -1 -8 3 -5 6 6 6 11 1 17 -2 13 -5z"/>
<path d="M1643 1320 l0 -60 34 0 c26 0 33 4 33 20 0 11 -4 20 -10 20 -5 0 -10
9 -10 20 0 17 5 19 25 14 21 -5 25 -3 25 15 0 12 -3 21 -7 22 -5 0 -26 2 -49
4 l-41 5 0 -60z"/>
<path d="M1836 1372 c-3 -5 7 -32 21 -61 24 -49 25 -54 10 -63 -30 -16 -20
-38 17 -38 37 0 55 15 38 32 -11 11 13 87 31 99 18 12 -2 41 -25 37 -17 -2
-23 -10 -24 -31 -2 -42 -14 -45 -14 -4 0 33 -3 37 -24 37 -14 0 -27 -4 -30 -8z"/>
</g>
</svg>
